#!OML:ASF H:\Terrain\Patient Classification 1\Walking\liu\liu.ASF
:FULLY-SPECIFIED
:DEGREES
238
root 9.01865 16.1294 -3.29293 10.4163 -4.09627 -5.32807
lowerback -8.7496 2.256 2.03661
upperback -2.08768 2.72942 2.71044
thorax 2.69812 1.36646 1.95801
lowerneck -18.1274 -6.28238 -14
upperneck 16.1285 -8.03376 15.3347
head 9.2956 -3.12725 6.5742
rclavicle 5.41315e-014 -5.96354e-015
rhumerus -44.9235 10.067 -87.7239
rradius 47.8752
rwrist -23.7463
rhand -28.8705 -24.3204
rfingers 7.12502
rthumb -2.22666 -54.2885
lclavicle 5.41315e-014 -5.96354e-015
lhumerus -49.675 -6.29909 90.5475
lradius 20.6707
lwrist -2.35256
lhand -7.09992 -23.8251
lfingers 7.12502
lthumb 18.7747 5.28887
rfemur 23.4432 5.21946 26.6898
rtibia -9.54166e-014
rfoot 1.23933 5.53036
rtoes -15.8752
lfemur -49.789 9.38562 -19.279
ltibia 41.8226
lfoot -2.19662 5.78949
ltoes -1.4384
239
root 9.03971 16.1459 -3.17461 10.3755 -4.0972 -5.31587
lowerback -7.9241 2.18374 1.86438
upperback -2.25716 2.6866 2.72043
thorax 2.05793 1.34512 2.01747
lowerneck -18.7185 -6.37036 -13.7013
upperneck 16.5663 -8.13406 14.9592
head 9.53809 -3.16403 6.37767
rclavicle 3.20043e-014 2.38542e-015
rhumerus -45.0274 9.77067 -87.8827
rradius 46.9879
rwrist -23.8339
rhand -30.6033 -25.2467
rfingers 7.12502
rthumb -3.90008 -55.1908
lclavicle 3.20043e-014 2.38542e-015
lhumerus -49.0996 -6.0063 90.0562
lradius 20.1092
lwrist -3.57287
lhand -7.42223 -23.818
lfingers 7.12502
lthumb 18.4647 5.32565
rfemur 23.6257 5.03164 26.6006
rtibia -9.85972e-014
rfoot 3.52823 4.58064
rtoes -16.818
lfemur -49.5979 9.47623 -19.3452
ltibia 42.2628
lfoot -2.5863 5.3977
ltoes -0.970917
240
root 9.07975 16.1618 -3.00434 10.2418 -4.13337 -4.83959
lowerback -7.77236 2.08078 1.44681
upperback -2.16479 2.58728 2.64326
thorax 2.05663 1.29493 2.15781
lowerneck -19.435 -6.45965 -13.7683
upperneck 16.9654 -8.17073 14.8538
head 9.81154 -3.16447 6.353
rclavicle -1.98785e-016 3.97569e-016
rhumerus -45.0446 10.0089 -88.0795
rradius 46.2153
rwrist -24.7611
rhand -31.8962 -23.3511
rfingers 7.12502
rthumb -5.14849 -53.2686
lclavicle -1.98785e-016 3.97569e-016
lhumerus -48.3717 -5.49715 89.6726
lradius 19.6879
lwrist -4.81453
lhand -7.92956 -24.1373
lfingers 7.12502
lthumb 17.9766 5.05186
rfemur 24.1184 4.83057 25.9117
rtibia 2.54444e-014
rfoot 5.66864 3.73767
rtoes -17.7187
lfemur -48.9677 9.65314 -20.1013
ltibia 42.5402
lfoot -3.27392 4.9061
ltoes -2.46335
241
root 9.12082 16.1807 -2.84465 10.1378 -4.16356 -4.47043
lowerback -7.43733 2.00184 1.17434
upperback -2.36752 2.5208 2.58485
thorax 1.65436 1.26298 2.22432
lowerneck -18.8681 -6.23844 -14.1584
upperneck 16.7638 -7.89863 15.3096
head 9.63267 -3.04298 6.63204
rclavicle 2.52581e-014 2.06736e-014
rhumerus -45.4812 9.56807 -87.8241
rradius 45.3737
rwrist -24.4385
rhand -31.404 -22.5484
rfingers 7.12502
rthumb -4.67322 -52.4769
lclavicle 2.52581e-014 2.06736e-014
lhumerus -48.2129 -5.27808 89.4581
lradius 19.772
lwrist -5.03755
lhand -7.46078 -23.8589
lfingers 7.12502
lthumb 18.4276 5.28831
rfemur 21.5671 4.5415 25.3345
rtibia 5.83763
rfoot 5.22253 4.05466
rtoes -18.5315
lfemur -48.2581 9.52096 -20.5531
ltibia 42.6727
lfoot -3.97865 4.7979
ltoes -2.89415
242
root 9.15772 16.1989 -2.68324 10.1249 -4.30407 -4.0883
lowerback -7.27545 1.96056 0.917168
upperback -2.55256 2.49655 2.44459
thorax 1.37 1.2523 2.21008
lowerneck -18.1183 -5.95733 -14.3593
upperneck 16.2955 -7.58711 15.7479
head 9.31095 -2.90194 6.8665
rclavicle -1.84559e-014 1.59028e-015
rhumerus -45.5512 8.42204 -87.2189
rradius 44.1654
rwrist -22.7583
rhand -29.8577 -23.5185
rfingers 7.12502
rthumb -3.18001 -53.4745
lclavicle -1.84559e-014 1.59028e-015
lhumerus -47.8399 -4.87734 88.8669
lradius 19.7637
lwrist -5.61417
lhand -7.34479 -24.9516
lfingers 7.12502
lthumb 18.5392 4.18493
rfemur 19.0036 4.36913 24.6747
rtibia 11.4207
rfoot 4.83735 4.17503
rtoes -18.2176
lfemur -47.5735 9.25158 -20.9122
ltibia 42.7465
lfoot -4.77894 5.02484
ltoes -1.68636
243
root 9.19685 16.2256 -2.51957 10.1802 -4.60876 -3.77532
lowerback -7.43982 2.04705 0.88145
upperback -2.51681 2.61366 2.19727
thorax 1.50449 1.30934 1.99243
lowerneck -18.238 -5.97914 -14.0635
upperneck 16.3108 -7.63426 15.5087
head 9.32231 -2.92285 6.71797
rclavicle 2.086e-014 -2.38542e-015
rhumerus -45.2119 7.64956 -86.964
rradius 42.9657
rwrist -22.0349
rhand -28.9598 -23.1483
rfingers 7.12502
rthumb -2.31285 -53.1155
lclavicle 2.086e-014 -2.38542e-015
lhumerus -47.0584 -4.71457 88.2932
lradius 19.5733
lwrist -6.15056
lhand -6.8308 -24.5059
lfingers 7.12502
lthumb 19.0335 4.58276
rfemur 16.8104 3.81521 23.8356
rtibia 15.9499
rfoot 5.37968 4.42794
rtoes -15.7201
lfemur -46.8815 9.15961 -21.2268
ltibia 42.7033
lfoot -5.61566 5.14215
ltoes -0.0419034
244
root 9.23838 16.2617 -2.35886 10.1312 -4.96707 -3.34208
lowerback -7.42094 2.17817 0.6971
upperback -2.52828 2.80682 1.95559
thorax 1.48042 1.40552 1.86165
lowerneck -18.4381 -6.0875 -13.8278
upperneck 16.5328 -7.77784 15.1672
head 9.43222 -2.99807 6.53392
rclavicle 4.00675e-015 -6.95746e-015
rhumerus -45.5188 7.57011 -87.0094
rradius 42.5385
rwrist -22.3456
rhand -29.2554 -23.3687
rfingers 7.12502
rthumb -2.59838 -53.3326
lclavicle 4.00675e-015 -6.95746e-015
lhumerus -46.4664 -4.97695 88.2055
lradius 19.4223
lwrist -5.89183
lhand -6.04895 -22.5691
lfingers 7.12502
lthumb 19.7853 6.44394
rfemur 14.8741 3.09893 22.7987
rtibia 20.0626
rfoot 6.32624 4.68337
rtoes -14.2915
lfemur -46.0234 9.17804 -21.7668
ltibia 42.6096
lfoot -6.34245 5.15031
ltoes 0.88296
245
root 9.27326 16.299 -2.20759 10.0396 -5.20667 -2.70471
lowerback -7.06572 2.12274 0.0674147
upperback -2.7248 2.78836 1.84854
thorax 1.05702 1.4012 2.0811
lowerneck -18.5841 -6.048 -13.8506
upperneck 16.8868 -7.68181 14.9228
head 9.55333 -2.9712 6.4731
rclavicle -3.6769e-014 7.55382e-015
rhumerus -46.3517 8.22317 -87.3021
rradius 42.5754
rwrist -23.3507
rhand -30.4205 -24.4115
rfingers 7.12502
rthumb -3.7235 -54.3587
lclavicle -3.6769e-014 7.55382e-015
lhumerus -46.1729 -4.86344 88.1809
lradius 19.2404
lwrist -6.13256
lhand -6.12241 -21.8112
lfingers 7.12502
lthumb 19.7147 7.2091
rfemur 13.154 2.30368 21.6391
rtibia 23.8158
rfoot 7.02717 5.03576
rtoes -15.5738
lfemur -45.2157 9.14628 -22.6014
ltibia 42.5042
lfoot -6.80717 5.17133
ltoes 0.00785024
246
root 9.31121 16.3306 -2.0569 9.93853 -5.50241 -2.12779
lowerback -6.75591 2.05383 -0.452667
upperback -2.90748 2.73692 1.76093
thorax 0.678802 1.38206 2.26008
lowerneck -18.6564 -5.95721 -13.8695
upperneck 17.2712 -7.52799 14.6887
head 9.66312 -2.91994 6.42605
rclavicle 1.20482e-014 1.51076e-014
rhumerus -46.6813 8.58826 -87.4446
rradius 41.7643
rwrist -23.7895
rhand -30.9038 -23.4873
rfingers 7.12502
rthumb -4.19029 -53.4258
lclavicle 1.20482e-014 1.51076e-014
lhumerus -45.9555 -4.58048 87.9888
lradius 19.2965
lwrist -6.79606
lhand -7.06971 -23.0448
lfingers 7.12502
lthumb 18.8038 6.06638
rfemur 11.6115 1.85861 20.6044
rtibia 27.3823
rfoot 7.9479 5.05767
rtoes -16.0579
lfemur -44.3812 9.27172 -23.4004
ltibia 42.3215
lfoot -7.31319 5.20927
ltoes -1.41129
247
root 9.3556 16.3586 -1.90036 9.76238 -5.85443 -1.79992
lowerback -6.38529 2.05378 -0.675997
upperback -3.06967 2.75391 1.74692
thorax 0.295667 1.39674 2.35183
lowerneck -18.4737 -5.85161 -13.953
upperneck 17.477 -7.37709 14.5853
head 9.67392 -2.87252 6.43342
rclavicle -1.94623e-014 -5.56597e-015
rhumerus -46.8088 8.24347 -86.8
rradius 40.5611
rwrist -21.9297
rhand -29.1518 -22.5261
rfingers 7.12502
rthumb -2.49833 -52.4912
lclavicle -1.94623e-014 -5.56597e-015
lhumerus -45.758 -4.76304 88.2269
lradius 19.9566
lwrist -7.30207
lhand -7.36173 -22.5698
lfingers 7.12502
lthumb 18.5229 6.56827
rfemur 10.2037 1.37025 19.7541
rtibia 30.7944
rfoot 9.56213 4.88299
rtoes -15.3751
lfemur -43.374 9.55533 -23.9149
ltibia 42.0992
lfoot -8.08158 5.31458
ltoes -0.666402
248
root 9.39561 16.3954 -1.75449 9.61948 -6.10011 -1.24824
lowerback -5.4885 1.91853 -1.31099
upperback -3.63069 2.61106 1.77903
thorax -0.804568 1.3499 2.68293
lowerneck -18.3441 -5.63659 -13.8775
upperneck 18.1258 -7.09631 14.2202
head 9.80921 -2.77776 6.35089
rclavicle 2.50531e-014 -4.77083e-015
rhumerus -48.342 9.58266 -87.5833
rradius 41.0504
rwrist -24.1587
rhand -30.0814 -24.4907
rfingers 7.12502
rthumb -3.39603 -54.4434
lclavicle 2.50531e-014 -4.77083e-015
lhumerus -46.2515 -5.49026 89.2663
lradius 19.8743
lwrist -4.09232
lhand -9.04816 -23.7439
lfingers 7.12502
lthumb 16.9001 5.54076
rfemur 8.5713 0.534105 18.7084
rtibia 34.0473
rfoot 10.6348 4.86173
rtoes -15.8888
lfemur -42.3769 9.52699 -24.5601
ltibia 41.7357
lfoot -8.82584 5.43124
ltoes 2.59304
249
root 9.43033 16.4255 -1.62185 9.475 -6.40898 -1.32108
lowerback -5.83746 2.00888 -0.945009
upperback -2.99101 2.70945 1.66411
thorax 0.0662706 1.37813 2.39351
lowerneck -19.3138 -5.74031 -13.5618
upperneck 18.0455 -7.17057 14.0893
head 9.95592 -2.76704 6.22915
rclavicle 3.17838e-014 2.34566e-014
rhumerus -47.498 9.72078 -87.9036
rradius 40.737
rwrist -25.4176
rhand -29.9229 -26.9785
rfingers 7.12502
rthumb -3.24298 -56.9336
lclavicle 3.17838e-014 2.34566e-014
lhumerus -44.4299 -5.54866 88.7619
lradius 19.8029
lwrist -5.12247
lhand -9.24877 -23.8447
lfingers 7.12502
lthumb 16.707 5.45635
rfemur 6.88543 0.277535 18.6492
rtibia 37.1974
rfoot 11.2347 3.98186
rtoes -15.9513
lfemur -41.3837 9.32013 -24.3109
ltibia 41.2708
lfoot -9.2667 5.689
ltoes 4.89019
250
root 9.46596 16.4571 -1.47832 9.37211 -6.73566 -1.12432
lowerback -6.07972 2.06442 -0.919359
upperback -2.67214 2.78033 1.54192
thorax 0.533004 1.40548 2.27581
lowerneck -19.5611 -5.72632 -13.4222
upperneck 17.8915 -7.12262 13.9958
head 9.93041 -2.73594 6.17102
rclavicle -1.39895e-014 1.23246e-014
rhumerus -47.127 10.0096 -88.3736
rradius 39.9681
rwrist -27.3582
rhand -32.1859 -22.9591
rfingers 7.12502
rthumb -5.42824 -52.8696
lclavicle -1.39895e-014 1.23246e-014
lhumerus -43.4565 -6.40064 89.0804
lradius 20.3166
lwrist -4.83734
lhand -9.61464 -22.7576
lfingers 7.12502
lthumb 16.3547 6.57283
rfemur 5.23828 0.158636 18.2682
rtibia 40.334
rfoot 11.8847 3.13172
rtoes -16.3768
lfemur -40.3228 9.09794 -24.4568
ltibia 40.6691
lfoot -9.53611 6.04506
ltoes 4.07019
251
root 9.49833 16.4931 -1.33286 9.04671 -7.1476 -0.390475
lowerback -5.9861 2.10172 -1.51959
upperback -2.41425 2.86432 1.33361
thorax 0.723321 1.44616 2.40532
lowerneck -19.9207 -5.70238 -13.4117
upperneck 17.9499 -7.05168 13.9939
head 10.0058 -2.68915 6.18111
rclavicle 9.02607e-015 -7.15625e-015
rhumerus -46.4886 9.11945 -87.3854
rradius 39.6749
rwrist -23.8564
rhand -30.5673 -27.1916
rfingers 7.12502
rthumb -3.86532 -57.1363
lclavicle 9.02607e-015 -7.15625e-015
lhumerus -42.47 -6.61038 88.822
lradius 20.3603
lwrist -5.09818
lhand -8.98243 -23.4465
lfingers 7.12502
lthumb 16.9633 5.83277
rfemur 3.77272 0.00778527 17.2388
rtibia 43.3737
rfoot 12.3555 2.4548
rtoes -17.5848
lfemur -39.0359 9.16868 -25.3033
ltibia 40.0477
lfoot -9.89129 6.26287
ltoes 3.1396
252
root 9.52676 16.5206 -1.20551 8.77544 -7.33473 0.244537
lowerback -5.73849 2.00914 -2.10217
upperback -2.20924 2.7719 1.19766
thorax 0.779952 1.39953 2.58087
lowerneck -20.6294 -5.68219 -13.3086
upperneck 18.2595 -6.99028 13.9613
head 10.2316 -2.63019 6.17135
rclavicle -1.33558e-014 -2.3059e-014
rhumerus -45.9429 8.5927 -86.9275
rradius 39.1844
rwrist -21.8334
rhand -31.7886 -28.9876
rfingers 7.12502
rthumb -5.04457 -58.9076
lclavicle -1.33558e-014 -2.3059e-014
lhumerus -41.452 -6.6859 88.679
lradius 20.6358
lwrist -4.8268
lhand -8.32805 -23.1761
lfingers 7.12502
lthumb 17.5932 6.04788
rfemur 2.25507 -0.29743 16.4387
rtibia 46.2574
rfoot 12.6073 1.17289
rtoes -18.7592
lfemur -37.8833 9.1306 -26.0506
ltibia 39.3883
lfoot -10.1601 6.46075
ltoes 2.73251
